{
.appVersion = "3414";
.formatVersion = 3;
customParameters = (
{
name = panose;
value = (
2,
11,
5,
2,
4,
5,
4,
2,
2,
4
);
},
{
name = unicodeRanges;
value = (
0,
6,
57
);
},
{
name = fsType;
value = (
);
},
{
disabled = 1;
name = glyphOrder;
value = (
.notdef,
.null,
CR,
"devi-sunuwar",
"tasla-sunuwar",
"eko-sunuwar",
"imar-sunuwar",
"reu-sunuwar",
"utthi-sunuwar",
"kik-sunuwar",
"ma-sunuwar",
"appho-sunuwar",
"pip-sunuwar",
"gil-sunuwar",
"hamso-sunuwar",
"carmi-sunuwar",
"nah-sunuwar",
"bur-sunuwar",
"jyah-sunuwar",
"loacha-sunuwar",
"otthi-sunuwar",
"shyele-sunuwar",
"varca-sunuwar",
"yat-sunuwar",
"ava-sunuwar",
"aal-sunuwar",
"donga-sunuwar",
"thari-sunuwar",
"phar-sunuwar",
"ngar-sunuwar",
"kha-sunuwar",
"shyer-sunuwar",
"cha-sunuwar",
"tta-sunuwar",
"ttha-sunuwar",
"kloko-sunuwar",
"pvo-sunuwar",
"zero-sunuwar",
"one-sunuwar",
"two-sunuwar",
"three-sunuwar",
"four-sunuwar",
"five-sunuwar",
"six-sunuwar",
"seven-sunuwar",
"eight-sunuwar",
"nine-sunuwar"
);
},
{
name = "Use Typo Metrics";
value = 1;
}
);
date = "2021-09-10 17:28:07 +0000";
familyName = "Noto Sans Sunuwar";
featurePrefixes = (
{
code = "languagesystem DFLT dflt;
languagesystem sunu dflt;
languagesystem latn dflt;
";
name = languagesystems;
}
);
fontMaster = (
{
customParameters = (
{
name = typoAscender;
value = 1069;
},
{
name = typoDescender;
value = -293;
},
{
name = typoLineGap;
value = 0;
},
{
name = winAscent;
value = 1069;
},
{
name = winDescent;
value = 293;
},
{
name = hheaAscender;
value = 1069;
},
{
name = hheaDescender;
value = -293;
},
{
name = strikeoutPosition;
value = 322;
},
{
name = strikeoutSize;
value = 50;
},
{
name = TTFStems;
value = (
{
horizontal = 1;
name = "Stem:0";
width = 79;
},
{
horizontal = 1;
name = "Stem:1";
width = 82;
},
{
horizontal = 0;
name = "Stem:2";
width = 89;
},
{
horizontal = 0;
name = "Stem:3";
width = 95;
},
{
horizontal = 1;
name = "Stem:4";
width = 79;
},
{
horizontal = 1;
name = "Stem:5";
width = 82;
},
{
horizontal = 1;
name = "Stem:6";

glyphs = (
{
category = Letter;
glyphname = "devi-sunuwar";
lastChange = "2025-04-11 17:34:23 +0000";
layers = (
{
anchors = (
{
name = bottom;
pos = (355,-50);
},
{
name = top;
pos = (355,764);
}
);
layerId = m01;
shapes = (
{
closed = 1;
nodes = (
(146,35,o),
(243,85,o),
(341,85,cs),
(469,85,o),
(502,51,o),
(562,9,c),
(610,35,l),
(610,677,l),
(562,703,l),
(502,661,o),
(447,620,o),
(341,620,cs),
(243,620,o),
(158,674,o),
(119,729,c),
(62,672,l),
(80,639,o),
(130,594,o),
(181,569,c),
(181,142,l),
(130,117,o),
(68,75,o),
(50,42,c),
(107,-15,l)
);
},
{
closed = 1;
nodes = (
(475,153,o),
(419,167,o),
(344,167,cs),
(305,167,o),
(286,164,o),
(270,160,c),
(270,543,l),
(289,540,o),
(311,538,o),
(344,538,cs),
(419,538,o),
(475,558,o),
(521,582,c),
(521,129,l)
);
}
);
width = 722;
}
);
metricRight = "one-sunuwar";
note = sunuwar_letter_devi;
script = Sunuwar;
unicode = 72640;
},
{
category = Letter;
glyphname = "tasla-sunuwar";
lastChange = "2025-04-11 17:34:23 +0000";
layers = (
{
anchors = (
{
name = bottom;
pos = (318,-50);
},
{
name = top;
pos = (321,765);
}
);
guides = (
{
angle = 42.2208;
pos = (135,565);
},
{
angle = 150.2551;
pos = (323,396);
},
{
angle = 123.5549;
pos = (638,37);
}
);
layerId = m01;
shapes = (
{
closed = 1;
nodes = (
(491,-15,o),
(634,151,o),
(634,385,cs),
(634,617,o),
(498,729,o),
(323,729,cs),
(202,729,o),
(125,675,o),
(71,621,c),
(127,557,l),
(167,598,o),
(230,647,o),
(323,647,cs),
(437,647,o),
(539,552,o),
(539,385,cs),
(539,208,o),
(442,67,o),
(301,67,cs),
(217,67,o),
(170,110,o),
(170,135,cs),
(170,163,o),
(290,299,o),
(311,299,cs),
(332,299,o),
(504,83,o),
(569,-15,c),
(638,37,l),
(594,103,o),
(390,397,o),
(312,397,cs),
(255,397,o),
(78,199,o),
(78,141,cs),
(78,62,o),
(169,-15,o),
(301,-15,cs)
);
}
);
width = 723;
}
);
note = sunuwar_letter_tasla;
script = Sunuwar;
unicode = 72641;
},
{
category = Letter;
glyphname = "eko-sunuwar";
lastChange = "2025-04-11 17:34:23 +0000";
layers = (
{
anchors = (
{
name = bottom;
pos = (306,-50);
},
{
name = top;
pos = (306,764);
}
);
layerId = m01;
shapes = (
{
closed = 1;
nodes = (
(536,0,l),
(536,79,l),
(55,79,l),
(55,0,l)
);
},
{
pos = (149,0);
ref = "one-sunuwar";
},
{
closed = 1;
nodes = (
(516,348,l),
(516,427,l),
(75,427,l),
(75,348,l)
);
}
);
width = 591;
}
);
note = sunuwar_letter_eko;
script = Sunuwar;
unicode = 72642;
},
{
category = Letter;
glyphname = "imar-sunuwar";
lastChange = "2025-04-11 17:34:23 +0000";
layers = (
{
anchors = (
{
name = bottom;
pos = (265,-50);
},
{
name = top;
pos = (265,764);
}
);
layerId = m01;
shapes = (
{
closed = 1;
nodes = (
(489,452,l),
(491,527,l),
(482,533,l),
(41,368,l),
(41,293,l),
(50,286,l)
);
},
{
closed = 1;
nodes = (
(310,0,l),
(310,714,l),
(221,714,l),
(221,0,l)
);
}
);
width = 532;
}
);
note = sunuwar_letter_imar;
script = Sunuwar;
unicode = 72643;
},
{
category = Letter;
glyphname = "reu-sunuwar";
lastChange = "2025-04-11 17:34:23 +0000";
layers = (
{
anchors = (
{
name = bottom;
pos = (393,-50);
},
{
name = top;
pos = (393,764);
}
);
guides = (
{
angle = -44.6049;
pos = (296,607);
},
{
angle = 122.0888;
pos = (575,83);
}
);
layerId = m01;
shapes = (
{
closed = 1;
nodes = (
(201,0,l),
(201,573,l),
(314,458,o),
(551,133,o),
(634,0,c),
(721,0,l),
(727,10,l),
(625,173,o),
(393,511,o),
(172,729,c),
(112,706,l),
(112,0,l)
);
},
{
closed = 1;
nodes = (
(434,0,l),
(434,714,l),
(345,714,l),
(345,0,l)
);
}
);
width = 727;
}
);
metricLeft = "one-sunuwar";
note = sunuwar_letter_reu;
script = Sunuwar;
unicode = 72644;
},
{
category = Letter;
glyphname = "utthi-sunuwar";
lastChange = "2025-04-11 17:34:23 +0000";
layers = (
{
anchors = (
{
name = bottom;
pos = (363,-50);
},
{
name = top;
pos = (363,764);
}
);
guides = (
{
angle = 197.5799;
pos = (625,368);
},
{
angle = 8.427;
pos = (628,289);
},
{
angle = -48.5035;
pos = (359,655);
},
{
angle = 132.625;
pos = (277,599);
}
);
layerId = m01;
shapes = (
{
closed = 1;
nodes = (
(409,8,o),
(421,43,o),
(438,79,cs),
(488,185,o),
(590,283,o),
(681,297,c),
(656,378,l),
(575,366,o),
(487,300,o),
(439,221,c),
(440,377,o),
(408,591,o),
(340,665,cs),
(304,704,o),
(261,729,o),
(202,729,cs),
(100,729,o),
(35,656,o),
(35,572,cs),
(35,544,o),
(40,521,o),
(46,506,c),
(130,526,l),
(128,531,o),
(124,545,o),
(124,561,cs),
(124,611,o),
(155,641,o),
(202,641,cs),
(229,641,o),
(250,629,o),
(269,609,cs),
(320,554,o),
(349,388,o),
(352,179,cs),
(353,119,o),
(350,55,o),
(346,-5,c),
(403,-15,l)
);
}
);
width = 701;
}
);
note = sunuwar_letter_utthi;
script = Sunuwar;
unicode = 72645;
},
{
category = Letter;
glyphname = "kik-sunuwar";
lastChange = "2025-04-11 17:34:23 +0000";
layers = (
{
anchors = (
{
name = bottom;
pos = (365,-50);
},
{
name = top;
pos = (365,764);
}
);
layerId = m01;
shapes = (
{
closed = 1;
nodes = (
(576,-7,o),
(613,29,o),
(637,62,c),
(576,118,l),
(564,104,o),
(543,75,o),
(510,75,cs),
(474,75,o),
(435,103,o),
(435,164,cs),
(435,246,o),
(502,365,o),
(599,442,c),
(578,500,l),
(35,500,l),
(35,421,l),
(464,421,l),
(466,416,l),
(399,348,o),
(346,255,o),
(346,164,cs),
(346,53,o),
(415,-7,o),
(510,-7,cs)
);
},
{
pos = (64,0);
ref = "one-sunuwar";
}
);
width = 672;
}
);
note = sunuwar_letter_kik;
script = Sunuwar;
unicode = 72646;
},
{
category = Letter;
glyphname = "ma-sunuwar";
lastChange = "2025-04-11 17:34:23 +0000";
layers = (
{
anchors = (
{
name = bottom;
pos = (399,-50);
},
{
name = top;
pos = (399,764);
}
);
layerId = m01;
shapes = (
{
closed = 1;
nodes = (
(174,48,o),
(212,150,o),
(212,316,cs),
(212,449,o),
(201,589,o),
(194,635,c),
(355,635,l),
(355,0,l),
(444,0,l),
(444,635,l),
(601,635,l),
(594,573,o),
(577,438,o),
(577,326,cs),
(577,130,o),
(628,12,o),
(690,-15,c),
(757,44,l),
(691,104,o),
(666,199,o),
(666,326,cs),
(666,436,o),
(684,571,o),
(697,661,c),
(671,714,l),
(134,714,l),
(96,674,l),
(106,601,o),
(123,447,o),
(123,316,cs),
(123,202,o),
(95,98,o),
(45,27,c),
(122,-15,l)
);
}
);
width = 802;
}
);
note = sunuwar_letter_ma;
script = Sunuwar;
unicode = 72647;
},
{
category = Letter;
glyphname = "appho-sunuwar";
lastChange = "2025-04-11 17:34:23 +0000";
layers = (
{
anchors = (
{
name = bottom;
pos = (236,-50);
},
{
name = top;
pos = (236,764);
}
);
guides = (
{
angle = 149.3227;
pos = (228,382);
}
);
layerId = m01;
shapes = (
{
closed = 1;
nodes = (
(335,0,o),
(438,86,o),
(438,392,cs),
(438,461,o),
(437,664,o),
(434,701,c),
(387,729,l),
(350,729,o),
(69,589,o),
(69,467,cs),
(69,375,o),
(169,319,o),
(245,274,c),
(287,347,l),
(228,382,o),
(164,424,o),
(164,463,cs),
(164,506,o),
(249,573,o),
(345,625,c),
(347,558,o),
(349,459,o),
(349,392,cs),
(349,135,o),
(288,79,o),
(35,79,c),
(35,0,l)
);
}
);
width = 523;
}
);
note = sunuwar_letter_appho;
script = Sunuwar;
unicode = 72648;
},
{
category = Letter;
glyphname = "pip-sunuwar";
lastChange = "2025-04-11 17:34:23 +0000";
layers = (
{
anchors = (
{
name = bottom;
pos = (367,-50);
},
{
name = top;
pos = (367,764);
}
);
guides = (
{
angle = -28.3008;
pos = (70,15);
}
);
layerId = m01;
shapes = (
{
closed = 1;
nodes = (
(367,-15,o),
(419,46,o),
(419,213,cs),
(419,586,ls),
(419,684,o),
(376,730,o),
(289,730,cs),
(167,730,o),
(45,607,o),
(45,507,cs),
(45,402,o),
(162,337,o),
(290,337,cs),
(502,337,o),
(615,434,o),
(615,589,cs),
(615,646,o),
(607,684,o),
(598,714,c),
(513,697,l),
(519,671,o),
(526,640,o),
(526,589,cs),
(526,481,o),
(466,419,o),
(294,419,cs),
(219,419,o),
(140,451,o),
(140,507,cs),
(140,576,o),
(220,648,o),
(277,648,cs),
(319,648,o),
(330,613,o),
(330,551,cs),
(330,233,ls),
(330,112,o),
(309,67,o),
(216,67,cs),
(160,67,o),
(100,96,o),
(82,106,c),
(48,27,l),
(71,14,o),
(137,-15,o),
(216,-15,cs)
);
}
);
width = 660;
}
);
note = sunuwar_letter_pip;
script = Sunuwar;
unicode = 72649;
},
{
category = Letter;
glyphname = "gil-sunuwar";
lastChange = "2025-04-11 17:34:23 +0000";
layers = (
{
anchors = (
{
name = bottom;
pos = (291,-50);
},
{
name = top;
pos = (291,764);
}
);
layerId = m01;
shapes = (
{
closed = 1;
nodes = (
(456,-15,o),
(518,46,o),
(518,213,cs),
(518,714,l),
(429,714,l),
(429,586,ls),
(429,519,o),
(429,470,o),
(409,441,cs),
(391,415,o),
(345,386,o),
(276,386,cs),
(195,386,o),
(150,425,o),
(150,529,cs),
(150,618,o),
(167,646,o),
(226,646,cs),
(241,646,o),
(251,643,o),
(257,641,c),
(265,723,l),
(256,726,o),
(237,729,o),
(214,729,cs),
(117,729,o),
(55,679,o),
(55,529,cs),
(55,370,o),
(131,304,o),
(266,304,cs),
(350,304,o),
(407,339,o),
(426,362,c),
(429,361,l),
(429,233,ls),
(429,112,o),
(385,67,o),
(270,67,cs),
(209,67,o),
(148,92,o),
(116,106,c),
(85,27,l),
(113,14,o),
(178,-15,o),
(270,-15,cs)
);
}
);
width = 613;
}
);
note = sunuwar_letter_gil;
script = Sunuwar;
unicode = 72650;
},
{
category = Letter;
glyphname = "hamso-sunuwar";
lastChange = "2025-04-11 17:34:23 +0000";
layers = (
{
anchors = (
{
name = bottom;
pos = (305,-50);
},
{
name = top;
pos = (305,764);
}
);
layerId = m01;
shapes = (
{
closed = 1;
nodes = (
(558,0,l),
(562,10,l),
(448,500,l),
(366,500,l),
(360,490,l),
(473,0,l)
);
},
{
pos = (64,0);
ref = "one-sunuwar";
},
{
closed = 1;
nodes = (
(390,421,l),
(448,500,l),
(35,500,l),
(35,421,l)
);
}
);
width = 607;
}
);
note = sunuwar_letter_hamso;
script = Sunuwar;
unicode = 72651;
},
{
category = Letter;
glyphname = "carmi-sunuwar";
lastChange = "2025-04-11 17:34:23 +0000";
layers = (
{
anchors = (
{
name = bottom;
pos = (251,-50);
},
{
name = top;
pos = (251,764);
}
);
layerId = m01;
shapes = (
{
closed = 1;
nodes = (
(469,49,l),
(369,152,o),
(247,272,o),
(140,360,c),
(140,364,l),
(251,451,o),
(369,569,o),
(461,667,c),
(400,727,l),
(294,607,o),
(151,485,o),
(35,386,c),
(35,336,l),
(154,233,o),
(289,104,o),
(404,-15,c)
);
}
);
width = 538;
}
);
note = sunuwar_letter_carmi;
script = Sunuwar;
unicode = 72652;
},
{
category = Letter;
glyphname = "nah-sunuwar";
lastChange = "2025-04-11 17:34:23 +0000";
layers = (
{
anchors = (
{
name = bottom;
pos = (298,-50);
},
{
name = top;
pos = (298,764);
}
);
guides = (
{
angle = 248.7638;
pos = (402,333);
}
);
layerId = m01;
shapes = (
{
closed = 1;
nodes = (
(520,-15,o),
(567,24,o),
(580,43,c),
(531,101,l),
(519,86,o),
(493,67,o),
(469,67,cs),
(444,67,o),
(427,80,o),
(427,105,cs),
(427,141,o),
(451,216,o),
(488,311,cs),
(523,401,o),
(546,459,o),
(546,528,cs),
(546,628,o),
(491,703,o),
(356,703,cs),
(283,703,o),
(227,674,o),
(206,648,c),
(203,648,l),
(173,688,o),
(99,729,o),
(8,729,c),
(8,650,l),
(68,650,o),
(118,629,o),
(151,593,c),
(114,534,o),
(97,456,o),
(97,384,cs),
(97,304,o),
(140,252,o),
(202,252,cs),
(270,252,o),
(308,314,o),
(308,389,cs),
(308,463,o),
(290,532,o),
(257,588,c),
(280,609,o),
(314,621,o),
(356,621,cs),
(425,621,o),
(457,582,o),
(457,528,cs),
(457,471,o),
(439,429,o),
(402,333,cs),
(361,228,o),
(338,158,o),
(338,107,cs),
(338,37,o),
(390,-15,o),
(466,-15,cs)
);
},
{
closed = 1;
nodes = (
(187,331,o),
(179,346,o),
(179,384,cs),
(179,434,o),
(185,483,o),
(202,519,c),
(205,519,l),
(219,484,o),
(226,441,o),
(226,389,cs),
(226,345,o),
(217,331,o),
(202,331,cs)
);
}
);
width = 625;
}
);
note = sunuwar_letter_nah;
script = Sunuwar;
unicode = 72653;
},
{
category = Letter;
glyphname = "bur-sunuwar";
lastChange = "2025-04-11 17:34:23 +0000";
layers = (
{
anchors = (
{
name = bottom;
pos = (359,-50);
},
{
name = top;
pos = (359,764);
}
);
layerId = m01;
shapes = (
{
closed = 1;
nodes = (
(300,0,o),
(403,86,o),
(403,392,cs),
(403,714,l),
(314,714,l),
(314,392,ls),
(314,135,o),
(253,79,o),
(25,79,c),
(25,0,l)
);
},
{
closed = 1;
nodes = (
(538,464,l),
(540,539,l),
(531,545,l),
(185,388,l),
(185,313,l),
(194,306,l)
);
}
);
width = 575;
}
);
note = sunuwar_letter_bur;
script = Sunuwar;
unicode = 72654;
},
{
category = Letter;
glyphname = "jyah-sunuwar";
lastChange = "2025-04-11 17:34:23 +0000";
layers = (
{
anchors = (
{
name = bottom;
pos = (329,-50);
},
{
name = top;
pos = (329,764);
}
);
layerId = m01;
shapes = (
{
closed = 1;
nodes = (
(366,0,l),
(606,704,l),
(600,714,l),
(530,714,l),
(357,197,ls),
(349,173,o),
(341,151,o),
(333,112,c),
(329,112,l),
(321,151,o),
(313,173,o),
(305,197,cs),
(129,714,l),
(51,714,l),
(45,704,l),
(285,0,l)
);
},
{
closed = 1;
nodes = (
(640,418,l),
(640,497,l),
(316,497,l),
(316,418,l)
);
}
);
width = 685;
}
);
note = sunuwar_letter_jyah;
script = Sunuwar;
unicode = 72655;
},
{
category = Letter;
glyphname = "loacha-sunuwar";
lastChange = "2025-04-11 17:34:23 +0000";
layers = (
{
anchors = (
{
name = bottom;
pos = (244,-50);
},
{
name = top;
pos = (244,764);
}
);
guides = (
{
angle = 64.3119;
pos = (115,22);
}
);
layerId = m01;
shapes = (
{
closed = 1;
nodes = (
(150,97,o),
(240,170,o),
(413,170,cs),
(426,170,o),
(439,170,o),
(452,169,c),
(452,248,l),
(439,249,o),
(427,249,o),
(415,249,cs),
(201,249,o),
(83,148,o),
(15,7,c),
(89,-28,l)
);
},
{
closed = 1;
nodes = (
(285,159,l),
(285,714,l),
(196,714,l),
(196,159,l)
);
}
);
width = 477;
}
);
note = sunuwar_letter_loacha;
script = Sunuwar;
unicode = 72656;
},
{
category = Letter;
glyphname = "otthi-sunuwar";
lastChange = "2025-04-11 17:34:23 +0000";
layers = (
{
anchors = (
{
name = bottom;
pos = (319,-50);
},
{
name = top;
pos = (319,764);
}
);
layerId = m01;
shapes = (
{
closed = 1;
nodes = (
(476,-15,o),
(577,136,o),
(577,360,cs),
(577,580,o),
(476,729,o),
(319,729,cs),
(156,729,o),
(61,565,o),
(61,363,cs),
(61,136,o),
(156,-15,o),
(316,-15,cs)
);
},
{
closed = 1;
nodes = (
(207,67,o),
(156,198,o),
(156,363,cs),
(156,526,o),
(207,647,o),
(319,647,cs),
(431,647,o),
(482,526,o),
(482,360,cs),
(482,198,o),
(431,67,o),
(316,67,cs)
);
}
);
width = 638;
}
);
note = sunuwar_letter_otthi;
script = Sunuwar;
unicode = 72657;
},
{
category = Letter;
glyphname = "shyer-sunuwar";
lastChange = "2025-04-11 17:34:23 +0000";
layers = (
{
anchors = (
{
name = bottom;
pos = (269,-50);
},
{
name = top;
pos = (269,764);
}
);
layerId = m01;
shapes = (
{
closed = 1;
nodes = (
(166,0,l),
(475,664,l),
(454,714,l),
(55,714,l),
(55,635,l),
(369,635,l),
(81,8,l),
(85,0,l)
);
},
{
closed = 1;
nodes = (
(460,314,l),
(460,393,l),
(108,393,l),
(108,314,l)
);
}
);
width = 520;
}
);
note = sunuwar_letter_shyer;
production = u11BD2;
script = Sunuwar;
unicode = 72658;
},
{
category = Letter;
glyphname = "varca-sunuwar";
lastChange = "2025-04-11 17:34:23 +0000";
layers = (
{
anchors = (
{
name = bottom;
pos = (355,-50);
},
{
name = top;
pos = (355,764);
}
);
guides = (
{
angle = 21.7323;
pos = (557,385);
},
{
angle = 132.217;
pos = (389,179);
}
);
layerId = m01;
shapes = (
{
closed = 1;
nodes = (
(201,0,l),
(201,192,ls),
(201,229,o),
(201,246,o),
(199,264,c),
(202,265,l),
(213,250,o),
(224,239,o),
(247,214,cs),
(384,63,l),
(437,82,l),
(437,96,o),
(438,109,o),
(439,119,cs),
(439,120,ls),
(452,236,o),
(530,389,o),
(658,440,c),
(623,511,l),
(501,463,o),
(405,332,o),
(378,195,c),
(201,390,l),
(201,714,l),
(112,714,l),
(112,0,l)
);
}
);
width = 673;
}
);
metricLeft = "one-sunuwar";
note = sunuwar_letter_varca;
script = Sunuwar;
unicode = 72659;
},
{
category = Letter;
glyphname = "yat-sunuwar";
lastChange = "2025-04-11 17:34:23 +0000";
layers = (
{
anchors = (
{
name = bottom;
pos = (357,-50);
},
{
name = top;
pos = (357,764);
}
);
guides = (
{
angle = 47.3859;
pos = (569,84);
}
);
layerId = m01;
shapes = (
{
closed = 1;
nodes = (
(456,455,ls),
(520,578,o),
(530,595,o),
(530,621,cs),
(530,665,o),
(466,729,o),
(363,729,cs),
(189,729,o),
(61,571,o),
(61,361,cs),
(61,120,o),
(225,-15,o),
(371,-15,cs),
(492,-15,o),
(554,51,o),
(588,105,c),
(522,155,l),
(501,118,o),
(451,67,o),
(371,67,cs),
(252,67,o),
(156,197,o),
(156,361,cs),
(156,530,o),
(235,647,o),
(358,647,cs),
(414,647,o),
(436,625,o),
(436,613,cs),
(436,603,o),
(430,590,o),
(380,494,cs),
(128,12,l),
(204,-27,l)
);
}
);
width = 618;
}
);
note = sunuwar_letter_yat;
script = Sunuwar;
unicode = 72660;
},
{
category = Letter;
glyphname = "ava-sunuwar";
lastChange = "2025-04-11 17:34:23 +0000";
layers = (
{
anchors = (
{
name = bottom;
pos = (425,-50);
},
{
name = top;
pos = (425,764);
}
);
layerId = m01;
shapes = (
{
closed = 1;
nodes = (
(322,-15,o),
(387,42,o),
(387,219,cs),
(387,383,l),
(626,383,l),
(626,292,l),
(540,268,o),
(486,220,o),
(486,140,cs),
(486,52,o),
(557,-15,o),
(665,-15,cs),
(722,-15,o),
(761,12,o),
(774,28,c),
(733,93,l),
(724,86,o),
(700,67,o),
(665,67,cs),
(627,67,o),
(581,88,o),
(581,136,cs),
(581,188,o),
(632,208,o),
(682,215,cs),
(694,217,o),
(703,218,o),
(708,219,c),
(715,227,l),
(715,714,l),
(626,714,l),
(626,462,l),
(387,462,l),
(387,714,l),
(50,714,l),
(50,635,l),
(298,635,l),
(298,219,ls),
(298,104,o),
(268,67,o),
(213,67,cs),
(162,67,o),
(125,99,o),
(125,163,cs),
(125,193,l),
(35,193,l),
(35,163,ls),
(35,48,o),
(100,-15,o),
(213,-15,cs)
);
}
);
width = 829;
}
);
note = sunuwar_letter_ava;
script = Sunuwar;
unicode = 72661;
},
{
category = Letter;
glyphname = "aal-sunuwar";
lastChange = "2025-04-11 17:34:23 +0000";
layers = (
{
anchors = (
{
name = bottom;
pos = (327,-50);
},
{
name = top;
pos = (327,764);
}
);
guides = (
{
angle = 236.0035;
pos = (72,571);
},
{
angle = 236.0035;
pos = (302,554);
}
);
layerId = m01;
shapes = (
{
closed = 1;
nodes = (
(546,25,l),
(546,714,l),
(75,714,l),
(75,635,l),
(219,635,l),
(124,494,ls),
(99,457,o),
(85,441,o),
(85,422,cs),
(85,406,o),
(97,396,o),
(112,389,cs),
(186,354,ls),
(210,342,o),
(216,339,o),
(216,331,cs),
(216,322,o),
(209,315,o),
(193,292,cs),
(128,200,ls),
(109,174,o),
(102,163,o),
(102,147,cs),
(102,127,o),
(120,117,o),
(143,106,cs),
(225,66,o),
(354,19,o),
(506,-11,c)
);
},
{
closed = 1;
nodes = (
(368,105,o),
(287,137,o),
(255,151,cs),
(228,163,o),
(221,166,o),
(221,174,cs),
(221,182,o),
(226,188,o),
(248,220,cs),
(318,322,ls),
(326,334,o),
(333,344,o),
(333,358,cs),
(333,375,o),
(320,382,o),
(302,390,cs),
(233,421,ls),
(206,433,o),
(196,437,o),
(196,446,cs),
(196,453,o),
(200,458,o),
(222,491,cs),
(319,635,l),
(457,635,l),
(457,87,l)
);
}
);
width = 658;
}
);
metricRight = "one-sunuwar";
note = sunuwar_letter_aal;
script = Sunuwar;
unicode = 72662;
},
{
category = Letter;
glyphname = "donga-sunuwar";
lastChange = "2025-04-11 17:34:23 +0000";
layers = (
{
anchors = (
{
name = bottom;
pos = (322,-50);
},
{
name = top;
pos = (322,764);
}
);
layerId = m01;
shapes = (
{
closed = 1;
nodes = (
(500,-15,o),
(637,101,o),
(637,260,cs),
(637,396,o),
(556,460,o),
(465,460,cs),
(406,460,o),
(371,435,o),
(359,415,c),
(356,416,l),
(356,635,l),
(608,635,l),
(608,714,l),
(45,714,l),
(45,635,l),
(267,635,l),
(267,258,l),
(318,244,l),
(352,320,o),
(386,378,o),
(450,378,cs),
(515,378,o),
(542,323,o),
(542,260,cs),
(542,142,o),
(456,67,o),
(344,67,cs),
(246,67,o),
(167,126,o),
(121,187,c),
(53,133,l),
(109,57,o),
(217,-15,o),
(346,-15,cs)
);
}
);
width = 698;
}
);
note = sunuwar_letter_donga;
script = Sunuwar;
unicode = 72663;
},
{
category = Letter;
glyphname = "thari-sunuwar";
lastChange = "2025-04-11 17:34:23 +0000";
layers = (
{
anchors = (
{
name = bottom;
pos = (384,-50);
},
{
name = top;
pos = (384,764);
}
);
layerId = m01;
shapes = (
{
closed = 1;
nodes = (
(389,-15,o),
(467,53,o),
(467,183,cs),
(467,714,l),
(86,714,l),
(86,635,l),
(378,635,l),
(378,183,ls),
(378,116,o),
(348,67,o),
(297,67,cs),
(218,67,o),
(150,127,o),
(150,197,cs),
(150,314,o),
(298,345,o),
(419,345,cs),
(547,345,o),
(615,280,o),
(615,186,cs),
(615,116,o),
(602,63,o),
(592,21,c),
(675,7,l),
(690,52,o),
(704,119,o),
(704,177,cs),
(704,324,o),
(598,427,o),
(419,427,cs),
(234,427,o),
(55,358,o),
(55,197,cs),
(55,66,o),
(179,-15,o),
(297,-15,cs)
);
}
);
width = 749;
}
);
note = sunuwar_letter_thari;
script = Sunuwar;
unicode = 72664;
},
{
category = Letter;
glyphname = "phar-sunuwar";
lastChange = "2025-04-11 17:34:23 +0000";
layers = (
{
anchors = (
{
name = bottom;
pos = (396,-50);
},
{
name = top;
pos = (396,764);
}
);
layerId = m01;
shapes = (
{
closed = 1;
nodes = (
(407,-15,o),
(492,59,o),
(551,164,cs),
(561,182,o),
(569,200,o),
(575,222,c),
(578,222,l),
(586,175,o),
(591,131,o),
(593,91,cs),
(594,58,o),
(597,19,o),
(596,3,c),
(685,9,l),
(685,28,o),
(684,66,o),
(682,93,cs),
(676,178,o),
(659,269,o),
(633,355,c),
(657,434,o),
(674,520,o),
(681,599,cs),
(683,620,o),
(685,641,o),
(688,692,c),
(595,699,l),
(594,669,o),
(593,641,o),
(590,610,cs),
(587,574,o),
(584,537,o),
(578,492,c),
(575,492,l),
(568,519,o),
(559,536,o),
(549,553,cs),
(494,652,o),
(410,729,o),
(309,729,cs),
(140,729,o),
(61,545,o),
(61,361,cs),
(61,164,o),
(152,-15,o),
(308,-15,cs)
);
},
{
closed = 1;
nodes = (
(226,67,o),
(156,199,o),
(156,361,cs),
(156,484,o),
(206,647,o),
(309,647,cs),
(395,647,o),
(484,513,o),
(539,356,c),
(486,194,o),
(399,67,o),
(308,67,cs)
);
}
);
width = 763;
}
);
note = sunuwar_letter_phar;
script = Sunuwar;
unicode = 72665;
},
{
category = Letter;
glyphname = "ngar-sunuwar";
lastChange = "2025-04-11 17:34:23 +0000";
layers = (
{
anchors = (
{
name = bottom;
pos = (280,-50);
},
{
name = top;
pos = (280,764);
}
);
guides = (
{
angle = -62.418;
pos = (59,84);
}
);
layerId = m01;
shapes = (
{
closed = 1;
nodes = (
(434,-15,o),
(532,84,o),
(532,211,cs),
(532,363,o),
(400,430,o),
(320,430,c),
(319,433,l),
(368,471,o),
(477,578,o),
(519,663,c),
(497,714,l),
(99,714,l),
(99,635,l),
(398,635,l),
(367,582,o),
(284,496,o),
(190,433,cs),
(172,421,o),
(158,412,o),
(146,405,c),
(162,350,l),
(194,355,o),
(213,358,o),
(242,358,cs),
(350,358,o),
(437,311,o),
(437,211,cs),
(437,122,o),
(370,67,o),
(285,67,cs),
(200,67,o),
(142,111,o),
(107,168,c),
(35,117,l),
(77,47,o),
(158,-15,o),
(285,-15,cs)
);
}
);
width = 593;
}
);
note = sunuwar_letter_ngar;
script = Sunuwar;
unicode = 72666;
},
{
category = Letter;
glyphname = "kha-sunuwar";
lastChange = "2025-04-11 17:34:23 +0000";
layers = (
{
anchors = (
{
name = bottom;
pos = (342,-50);
},
{
name = top;
pos = (342,764);
}
);
layerId = m01;
shapes = (
{
closed = 1;
nodes = (
(626,-15,o),
(659,15,o),
(674,31,c),
(628,91,l),
(616,79,o),
(600,67,o),
(580,67,cs),
(556,67,o),
(535,86,o),
(535,156,cs),
(535,714,l),
(112,714,l),
(112,0,l),
(201,0,l),
(201,635,l),
(446,635,l),
(446,155,ls),
(446,45,o),
(491,-15,o),
(574,-15,cs)
);
}
);
width = 679;
}
);
metricLeft = "one-sunuwar";
note = sunuwar_letter_kha;
script = Sunuwar;
unicode = 72667;
},
{
category = Letter;
glyphname = "shyele-sunuwar";
lastChange = "2025-04-11 17:34:23 +0000";
layers = (
{
anchors = (
{
name = bottom;
pos = (319,-50);
},
{
name = top;
pos = (319,764);
}
);
layerId = m01;
shapes = (
{
closed = 1;
nodes = (
(428,-15,o),
(539,31,o),
(539,219,cs),
(539,635,l),
(660,635,l),
(660,714,l),
(450,714,l),
(450,221,ls),
(450,91,o),
(394,67,o),
(319,67,cs),
(244,67,o),
(184,91,o),
(184,221,cs),
(184,714,l),
(95,714,l),
(95,219,ls),
(95,31,o),
(210,-15,o),
(319,-15,cs)
);
}
);
width = 685;
}
);
note = sunuwar_letter_shyele;
script = Sunuwar;
unicode = 72668;
},
{
category = Letter;
glyphname = "chelap-sunuwar";
lastChange = "2025-04-11 17:34:23 +0000";
layers = (
{
anchors = (
{
name = bottom;
pos = (383,-50);
},
{
name = top;
pos = (383,764);
}
);
guides = (
{
angle = 24.5277;
pos = (642,568);
},
{
angle = 149.3277;
pos = (201,670);
}
);
layerId = m01;
shapes = (
{
closed = 1;
nodes = (
(336,180,l),
(342,204,o),
(349,243,o),
(349,293,cs),
(349,455,o),
(294,614,o),
(101,729,c),
(54,657,l),
(206,567,o),
(260,436,o),
(260,293,cs),
(260,227,o),
(249,189,o),
(235,162,c)
);
},
{
closed = 1;
nodes = (
(131,29,o),
(244,102,o),
(382,102,cs),
(511,102,o),
(604,32,o),
(653,-15,c),
(711,44,l),
(661,94,o),
(548,184,o),
(382,184,cs),
(201,184,o),
(83,93,o),
(25,47,c),
(75,-15,l)
);
},
{
closed = 1;
nodes = (
(514,325,o),
(595,459,o),
(713,514,c),
(678,584,l),
(528,514,o),
(428,359,o),
(425,179,c),
(514,157,l)
);
}
);
width = 748;
}
);
note = sunuwar_letter_cha;
script = Sunuwar;
unicode = 72669;
},
{
category = Letter;
glyphname = "tentu-sunuwar";
lastChange = "2025-04-11 17:34:23 +0000";
layers = (
{
anchors = (
{
name = bottom;
pos = (316,-50);
},
{
name = top;
pos = (316,764);
}
);
guides = (
{
angle = 236.7562;
pos = (235,343);
}
);
layerId = m01;
shapes = (
{
closed = 1;
nodes = (
(108,0,l),
(260,232,ls),
(294,285,o),
(308,307,o),
(319,329,c),
(322,329,l),
(334,307,o),
(349,283,o),
(384,230,cs),
(537,0,l),
(626,0,l),
(630,8,l),
(369,400,l),
(542,664,l),
(521,714,l),
(72,714,l),
(72,635,l),
(426,635,l),
(15,8,l),
(19,0,l)
);
}
);
width = 655;
}
);
note = sunuwar_letter_tta;
script = Sunuwar;
unicode = 72670;
},
{
category = Letter;
glyphname = "thele-sunuwar";
lastChange = "2025-04-11 17:34:23 +0000";
layers = (
{
anchors = (
{
name = bottom;
pos = (288,-50);
},
{
name = top;
pos = (288,764);
}
);
layerId = m01;
shapes = (
{
closed = 1;
nodes = (
(536,0,l),
(536,79,l),
(162,79,l),
(543,660,l),
(543,661,l),
(545,664,l),
(524,714,l),
(54,714,l),
(54,635,l),
(428,635,l),
(45,50,l),
(66,0,l)
);
},
{
closed = 1;
nodes = (
(529,294,l),
(529,373,l),
(277,373,l),
(277,294,l)
);
}
);
width = 610;
}
);
note = sunuwar_letter_ttha;
script = Sunuwar;
unicode = 72671;
},
{
category = Letter;
glyphname = "kloko-sunuwar";
lastChange = "2025-04-11 17:34:23 +0000";
layers = (
{
anchors = (
{
name = bottom;
pos = (329,-50);
},
{
name = top;
pos = (329,764);
}
);
guides = (
{
angle = -55.8855;
pos = (121,34);
}
);
layerId = m01;
shapes = (
{
closed = 1;
nodes = (
(461,-15,o),
(597,97,o),
(597,316,cs),
(597,543,o),
(460,636,o),
(335,636,cs),
(255,636,o),
(198,597,o),
(178,565,c),
(175,567,l),
(175,714,l),
(86,714,l),
(86,393,l),
(166,365,l),
(175,375,l),
(175,477,o),
(232,554,o),
(335,554,cs),
(421,554,o),
(502,484,o),
(502,316,cs),
(502,143,o),
(403,67,o),
(313,67,cs),
(225,67,o),
(167,115,o),
(146,146,c),
(85,88,l),
(113,45,o),
(191,-15,o),
(313,-15,cs)
);
}
);
width = 652;
}
);
note = sunuwar_letter_kloko;
script = Sunuwar;
unicode = 72672;
},
{
category = Letter;
glyphname = "pvo-sunuwar";
lastChange = "2025-04-11 17:34:23 +0000";
layers = (
{
guides = (
{
angle = 20.3231;
pos = (875,370);
}
);
layerId = m01;
shapes = (
{
closed = 1;
nodes = (
(627,-15,o),
(815,87,o),
(815,165,cs),
(815,194,o),
(771,324,o),
(771,439,cs),
(771,524,o),
(785,649,o),
(847,649,cs),
(889,649,o),
(905,603,o),
(905,552,cs),
(905,506,o),
(874,458,o),
(847,448,c),
(887,375,l),
(929,390,o),
(994,449,o),
(994,552,cs),
(994,642,o),
(949,728,o),
(847,728,cs),
(721,728,o),
(679,598,o),
(676,459,cs),
(674,357,o),
(694,266,o),
(724,163,c),
(684,121,o),
(587,73,o),
(514,68,c),
(524,158,o),
(525,283,o),
(525,345,cs),
(525,448,o),
(519,598,o),
(511,714,c),
(422,714,l),
(431,593,o),
(436,477,o),
(436,348,cs),
(436,277,o),
(431,146,o),
(424,68,c),
(347,78,o),
(263,118,o),
(207,177,c),
(232,249,o),
(260,324,o),
(260,434,cs),
(260,603,o),
(206,717,o),
(69,729,c),
(45,647,l),
(128,637,o),
(165,554,o),
(165,439,cs),
(165,307,o),
(116,197,o),
(116,178,cs),
(116,88,o),
(319,-15,o),
(466,-15,cs)
);
}
);
width = 1049;
}
);
note = sunuwar_letter_pvo;
script = Sunuwar;
unicode = 72673;
},
{
category = Number;
glyphname = "zero-sunuwar";
lastChange = "2025-04-11 17:34:23 +0000";
layers = (
{
layerId = m01;
shapes = (
{
closed = 1;
nodes = (
(488,-15,o),
(552,57,o),
(552,358,cs),
(552,658,o),
(488,728,o),
(322,728,cs),
(155,728,o),
(75,658,o),
(75,358,cs),
(75,57,o),
(155,-15,o),
(322,-15,cs)
);
},
{
closed = 1;
nodes = (
(94,243,l),
(465,518,l),
(512,456,l),
(142,181,l)
);
},
{
closed = 1;
nodes = (
(218,67,o),
(174,124,o),
(174,358,cs),
(174,591,o),
(218,646,o),
(322,646,cs),
(425,646,o),
(453,591,o),
(453,358,cs),
(453,124,o),
(425,67,o),
(322,67,cs)
);
}
);
width = 627;
}
);
note = sunuwar_digit_zero;
script = Sunuwar;
unicode = 72688;
},
{
category = Number;
glyphname = "one-sunuwar";
lastChange = "2025-04-11 17:34:23 +0000";
layers = (
{
layerId = m01;
shapes = (
{
closed = 1;
nodes = (
(201,0,l),
(201,714,l),
(112,714,l),
(112,0,l)
);
}
);
width = 313;
}
);
note = sunuwar_digit_one;
script = Sunuwar;
unicode = 72689;
},
{
category = Number;
glyphname = "two-sunuwar";
lastChange = "2025-04-11 17:34:23 +0000";
layers = (
{
layerId = m01;
shapes = (
{
closed = 1;
nodes = (
(499,549,l),
(501,624,l),
(492,630,l),
(51,465,l),
(51,390,l),
(60,383,l)
);
},
{
closed = 1;
nodes = (
(499,283,l),
(501,358,l),
(492,364,l),
(51,199,l),
(51,124,l),
(60,117,l)
);
},
{
closed = 1;
nodes = (
(320,0,l),
(320,714,l),
(231,714,l),
(231,0,l)
);
}
);
width = 552;
}
);
note = sunuwar_digit_two;
script = Sunuwar;
unicode = 72690;
},
{
category = Number;
glyphname = "three-sunuwar";
lastChange = "2025-04-11 17:34:23 +0000";
layers = (
{
layerId = m01;
shapes = (
{
closed = 1;
nodes = (
(499,549,l),
(501,624,l),
(492,630,l),
(51,465,l),
(51,390,l),
(60,383,l)
);
},
{
closed = 1;
nodes = (
(306,210,l),
(308,285,l),
(299,291,l),
(51,199,l),
(51,124,l),
(60,117,l)
);
},
{
closed = 1;
nodes = (
(320,0,l),
(320,714,l),
(231,714,l),
(231,0,l)
);
}
);
width = 552;
}
);
note = sunuwar_digit_three;
script = Sunuwar;
unicode = 72691;
},
{
category = Number;
glyphname = "four-sunuwar";
lastChange = "2025-04-11 17:34:23 +0000";
layers = (
{
layerId = m01;
shapes = (
{
closed = 1;
nodes = (
(531,0,l),
(531,714,l),
(112,714,l),
(112,0,l)
);
},
{
closed = 1;
nodes = (
(201,635,l),
(442,635,l),
(442,79,l),
(201,79,l)
);
}
);
width = 643;
}
);
metricLeft = "one-sunuwar";
metricRight = "one-sunuwar";
note = sunuwar_digit_four;
script = Sunuwar;
unicode = 72692;
},
{
category = Number;
glyphname = "five-sunuwar";
kernLeft = "one-sunuwar";
kernRight = "on-sunuwar";
lastChange = "2025-04-11 17:34:23 +0000";
layers = (
{
layerId = m01;
shapes = (
{
closed = 1;
nodes = (
(531,0,l),
(531,714,l),
(112,714,l),
(112,0,l)
);
},
{
closed = 1;
nodes = (
(201,324,l),
(442,324,l),
(442,79,l),
(201,79,l)
);
},
{
closed = 1;
nodes = (
(201,635,l),
(442,635,l),
(442,403,l),
(201,403,l)
);
}
);
width = 643;
}
);
metricLeft = "one-sunuwar";
metricRight = "one-sunuwar";
note = sunuwar_digit_five;
script = Sunuwar;
unicode = 72693;
},
{
category = Number;
glyphname = "six-sunuwar";
lastChange = "2025-04-11 17:34:23 +0000";
layers = (
{
guides = (
{
angle = 87.2361;
pos = (333,543);
},
{
angle = 103.5704;
pos = (32,29);
}
);
layerId = m01;
shapes = (
{
closed = 1;
nodes = (
(553,0,l),
(553,714,l),
(281,714,l),
(281,380,o),
(190,214,o),
(25,58,c),
(39,0,l)
);
},
{
closed = 1;
nodes = (
(270,204,o),
(358,370,o),
(361,635,c),
(464,635,l),
(464,79,l),
(155,79,l)
);
}
);
width = 665;
}
);
metricRight = "one-sunuwar";
note = sunuwar_digit_six;
script = Sunuwar;
unicode = 72694;
},
{
category = Number;
glyphname = "seven-sunuwar";
lastChange = "2025-04-11 17:34:23 +0000";
layers = (
{
guides = (
{
angle = 76.4296;
pos = (690,29);
},
{
angle = 122.3914;
pos = (673,110);
}
);
layerId = m01;
shapes = (
{
closed = 1;
nodes = (
(732,0,l),
(746,58,l),
(643,206,o),
(613,330,o),
(613,714,c),
(112,714,l),
(112,0,l)
);
},
{
closed = 1;
nodes = (
(201,635,l),
(327,635,l),
(327,79,l),
(201,79,l)
);
},
{
closed = 1;
nodes = (
(416,635,l),
(524,635,l),
(524,330,o),
(555,189,o),
(624,79,c),
(416,79,l)
);
}
);
width = 771;
}
);
metricLeft = "one-sunuwar";
note = sunuwar_digit_seven;
script = Sunuwar;
unicode = 72695;
},
{
category = Number;
glyphname = "eight-sunuwar";
lastChange = "2025-04-11 17:34:23 +0000";
layers = (
{
layerId = m01;
shapes = (
{
closed = 1;
nodes = (
(134,0,l),
(226,161,ls),
(260,222,o),
(280,260,o),
(292,287,c),
(295,287,l),
(307,260,o),
(327,222,o),
(361,161,cs),
(453,0,l),
(538,0,l),
(542,10,l),
(341,364,l),
(533,704,l),
(527,714,l),
(451,714,l),
(356,546,ls),
(328,495,o),
(310,461,o),
(298,436,c),
(295,436,l),
(285,461,o),
(268,494,o),
(239,545,cs),
(142,714,l),
(60,714,l),
(54,704,l),
(249,359,l),
(51,10,l),
(55,0,l)
);
}
);
width = 593;
}
);
note = sunuwar_digit_eight;
script = Sunuwar;
unicode = 72696;
},
{
category = Number;
glyphname = "nine-sunuwar";
lastChange = "2025-04-11 17:34:23 +0000";
layers = (
{
layerId = m01;
shapes = (
{
closed = 1;
nodes = (
(434,327,l),
(434,589,l),
(345,589,l),
(345,327,l)
);
},
{
ref = "one-sunuwar";
},
{
closed = 1;
nodes = (
(406,418,l),
(406,497,l),
(174,497,l),
(174,418,l)
);
}
);
width = 499;
}
);
metricLeft = "one-sunuwar";
note = sunuwar_digit_nine;
script = Sunuwar;
unicode = 72697;
},
{
glyphname = .notdef;
lastChange = "2025-04-11 17:34:23 +0000";
layers = (
{
layerId = m01;
shapes = (
{
closed = 1;
nodes = (
(505,0,l),
(505,714,l),
(94,714,l),
(94,0,l)
);
},
{
closed = 1;
nodes = (
(145,663,l),
(454,663,l),
(454,51,l),
(145,51,l)
);
}
);
userData = {
assembly = "PUSHB[ ]	/* 2 values pushed */
1 0
MDAP[1]	/* MoveDirectAbsPt */
ALIGNRP[ ]	/* AlignRelativePt */
PUSHB[ ]	/* 3 values pushed */
7 4 0
MIRP[01101]	/* MoveIndirectRelPt */
SHP[0]	/* ShiftPointByLastPoint */
PUSHB[ ]	/* 2 values pushed */
6 5
MDRP[11100]	/* MoveDirectRelPt */
ALIGNRP[ ]	/* AlignRelativePt */
PUSHB[ ]	/* 3 values pushed */
3 2 0
MIRP[01101]	/* MoveIndirectRelPt */
SHP[0]	/* ShiftPointByLastPoint */
SVTCA[0]	/* SetFreedomAndProjectionVectorToAxis */
PUSHB[ ]	/* 2 values pushed */
3 0
MDAP[1]	/* MoveDirectAbsPt */
ALIGNRP[ ]	/* AlignRelativePt */
PUSHB[ ]	/* 3 values pushed */
5 4 0
MIRP[01101]	/* MoveIndirectRelPt */
SHP[0]	/* ShiftPointByLastPoint */
PUSHB[ ]	/* 3 values pushed */
7 6 1
MIRP[11100]	/* MoveIndirectRelPt */
ALIGNRP[ ]	/* AlignRelativePt */
PUSHB[ ]	/* 3 values pushed */
1 2 0
MIRP[01101]	/* MoveIndirectRelPt */
SHP[0]	/* ShiftPointByLastPoint */";
};
width = 600;
}
);
note = .notdef;
},
{
glyphname = period;
kernLeft = comma;
kernRight = comma;
lastChange = "2025-04-11 17:34:23 +0000";
layers = (
{
layerId = m01;
shapes = (
{
closed = 1;
nodes = (
(167.667,-14,o),
(196,6,o),
(196,54,cs),
(196,103.333,o),
(167.667,121,o),
(133,121,cs),
(99.667,121,o),
(72,103.333,o),
(72,54,cs),
(72,6,o),
(99.667,-14,o),
(133,-14,cs)
);
}
);
width = 268;
}
);
note = period;
unicode = 46;
},
{
glyphname = comma;
kernLeft = comma;
kernRight = comma;
lastChange = "2025-04-11 17:34:23 +0000";
layers = (
{
layerId = m01;
shapes = (
{
closed = 1;
nodes = (
(106,-129,l),
(137.817,-57.412,o),
(173.103,31.513,o),
(192,105,c),
(185,116,l),
(91,116,l),
(82.051,53.354,o),
(63.698,-42.747,o),
(41,-129,c)
);
}
);
width = 268;
}
);
note = comma;
unicode = 44;
},
{
glyphname = colon;
kernLeft = colon;
lastChange = "2025-04-11 17:34:23 +0000";
layers = (
{
layerId = m01;
shapes = (
{
closed = 1;
nodes = (
(167.667,414,o),
(196,434,o),
(196,482,cs),
(196,532.667,o),
(167.667,550,o),
(133,550,cs),
(99.667,550,o),
(72,532.667,o),
(72,482,cs),
(72,434,o),
(99.667,414,o),
(133,414,cs)
);
},
{
closed = 1;
nodes = (
(167.667,-14,o),
(196,6,o),
(196,54,cs),
(196,103.333,o),
(167.667,121,o),
(133,121,cs),
(99.667,121,o),
(72,103.333,o),
(72,54,cs),
(72,6,o),
(99.667,-14,o),
(133,-14,cs)
);
}
);
width = 268;
}
);
note = colon;
unicode = 58;
},
{
glyphname = semicolon;
kernLeft = colon;
lastChange = "2025-04-11 17:34:23 +0000";
layers = (
{
layerId = m01;
shapes = (
{
closed = 1;
nodes = (
(97,-129,l),
(128.817,-57.412,o),
(164.103,31.513,o),
(183,105,c),
(176,116,l),
(82,116,l),
(69.724,36.203,o),
(52.31,-43.761,o),
(31,-129,c)
);
},
{
closed = 1;
nodes = (
(165.667,414,o),
(194,434,o),
(194,482,cs),
(194,532.667,o),
(165.667,550,o),
(131,550,cs),
(97.667,550,o),
(70,532.667,o),
(70,482,cs),
(70,434,o),
(97.667,414,o),
(131,414,cs)
);
}
);
width = 268;
}
);
note = semicolon;
unicode = 59;
},
{
glyphname = exclam;
lastChange = "2025-04-11 17:34:23 +0000";
layers = (
{
layerId = m01;
shapes = (
{
closed = 1;
nodes = (
(163,201,l),
(188,714,l),
(81,714,l),
(106,201,l)
);
},
{
closed = 1;
nodes = (
(167.333,-14,o),
(196,6,o),
(196,54,cs),
(196,103.333,o),
(167.333,121,o),
(134,121,cs),
(99.333,121,o),
(72,103.333,o),
(72,54,cs),
(72,6,o),
(99.333,-14,o),
(134,-14,cs)
);
}
);
width = 269;
}
);
note = exclam;
unicode = 33;
},
{
glyphname = question;
lastChange = "2025-04-11 17:34:23 +0000";
layers = (
{
layerId = m01;
shapes = (
{
closed = 1;
nodes = (
(210,201,l),
(210,218,ls),
(210,256.667,o),
(216.167,281,o),
(239.5,309,cs),
(251.167,323,o),
(268,339.333,o),
(290,358,cs),
(338,398,o),
(374.167,430.5,o),
(393.5,472.5,cs),
(403.167,493.5,o),
(408,519,o),
(408,549,cs),
(408,657,o),
(335.667,724,o),
(209,724,cs),
(129,724,o),
(65.333,703,o),
(12,675,c),
(43,605,l),
(89.667,627.667,o),
(137.667,647,o),
(203,647,cs),
(281.667,647,o),
(324,611,o),
(324,547,cs),
(324,507,o),
(313.167,482.333,o),
(284.5,453,cs),
(270.167,438.333,o),
(250,420,o),
(224,398,cs),
(181.333,362,o),
(157.5,330.167,o),
(147.5,293.5,cs),
(142.5,275.167,o),
(140,253.333,o),
(140,228,cs),
(140,201,l)
);
},
{
closed = 1;
nodes = (
(212.333,-14,o),
(240,6,o),
(240,54,cs),
(240,103.333,o),
(212.333,121,o),
(179,121,cs),
(143,121,o),
(117,103.333,o),
(117,54,cs),
(117,6,o),
(143,-14,o),
(179,-14,cs)
);
}
);
width = 434;
}
);
note = question;
unicode = 63;
},
{
glyphname = hyphen;
kernLeft = hyphen;
kernRight = hyphen;
lastChange = "2025-04-11 17:34:23 +0000";
layers = (
{
layerId = m01;
shapes = (
{
closed = 1;
nodes = (
(282,229,l),
(282,307,l),
(40,307,l),
(40,229,l)
);
}
);
width = 322;
}
);
note = hyphen;
unicode = 45;
},
{
glyphname = parenleft;
kernRight = parenleft;
lastChange = "2025-04-11 17:34:23 +0000";
layers = (
{
layerId = m01;
shapes = (
{
closed = 1;
nodes = (
(269,-158,l),
(179.995,-36.102,o),
(129,115.126,o),
(129,275,cs),
(129,433.667,o),
(176.667,588.667,o),
(270,714,c),
(187,714,l),
(87.755,594.906,o),
(40,443.892,o),
(40,274,cs),
(40,114.375,o),
(84.639,-37.214,o),
(187,-158,c)
);
}
);
width = 300;
}
);
note = parenleft;
unicode = 40;
},
{
glyphname = parenright;
kernLeft = parenright;
lastChange = "2025-04-11 17:34:23 +0000";
layers = (
{
layerId = m01;
shapes = (
{
closed = 1;
nodes = (
(113,-158,l),
(213.564,-41.662,o),
(260,109.497,o),
(260,274,cs),
(260,440.682,o),
(214.014,595.16,o),
(113,714,c),
(30,714,l),
(121.852,592.834,o),
(171,433.78,o),
(171,275,cs),
(171,118.554,o),
(122.028,-33.331,o),
(31,-158,c)
);
}
);
width = 300;
}
);
note = parenright;
unicode = 41;
},
{
glyphname = braceleft;
kernRight = parenleft;
lastChange = "2025-04-11 17:34:23 +0000";
layers = (
{
layerId = m01;
shapes = (
{
closed = 1;
nodes = (
(348,-86,l),
(276.681,-83.962,o),
(237,-57.139,o),
(237,7,cs),
(237,154,ls),
(237,222,o),
(202.667,262.667,o),
(128,276,c),
(128,282,l),
(201.333,295.333,o),
(237,336,o),
(237,404,cs),
(237,548,ls),
(237,611.923,o),
(277.99,639.941,o),
(348,642,c),
(348,714,l),
(228.262,714,o),
(150,660.244,o),
(150,556,cs),
(150,408,ls),
(150,342.489,o),
(109.628,317.041,o),
(28,315,c),
(28,242,l),
(107.594,242,o),
(150,214.798,o),
(150,148,cs),
(150,1,ls),
(150,-69.667,o),
(183.167,-117.333,o),
(242.5,-140,cs),
(272.167,-151.333,o),
(307.333,-157.333,o),
(348,-158,c)
);
}
);
width = 380;
}
);
note = braceleft;
unicode = 123;
},
{
glyphname = braceright;
kernLeft = parenright;
lastChange = "2025-04-11 17:34:23 +0000";
layers = (
{
layerId = m01;
shapes = (
{
closed = 1;
nodes = (
(151.873,-158,o),
(230,-104.386,o),
(230,0,cs),
(230,149,ls),
(230,217.053,o),
(275.085,242,o),
(352,242,c),
(352,315,l),
(275.41,315,o),
(230,339.927,o),
(230,409,cs),
(230,555,ls),
(230,660.495,o),
(156.588,714,o),
(32,714,c),
(32,642,l),
(103.654,642,o),
(143,613.299,o),
(143,549,cs),
(143,403,ls),
(143,335,o),
(178.667,294.333,o),
(252,281,c),
(252,275,l),
(178.667,261.667,o),
(143,221,o),
(143,153,cs),
(143,8,ls),
(143,-55.239,o),
(101.905,-84.003,o),
(32,-86,c),
(32,-158,l)
);
}
);
width = 380;
}
);
note = braceright;
unicode = 125;
},
{
glyphname = bracketleft;
kernRight = parenleft;
lastChange = "2025-04-11 17:34:23 +0000";
layers = (
{
layerId = m01;
shapes = (
{
closed = 1;
nodes = (
(304,-158,l),
(304,-86,l),
(166,-86,l),
(166,642,l),
(304,642,l),
(304,714,l),
(80,714,l),
(80,-158,l)
);
}
);
width = 329;
}
);
note = bracketleft;
unicode = 91;
},
{
glyphname = bracketright;
kernLeft = parenright;
lastChange = "2025-04-11 17:34:23 +0000";
layers = (
{
layerId = m01;
shapes = (
{
closed = 1;
nodes = (
(249,-158,l),
(249,714,l),
(25,714,l),
(25,642,l),
(163,642,l),
(163,-86,l),
(25,-86,l),
(25,-158,l)
);
}
);
width = 329;
}
);
note = bracketright;
unicode = 93;
},
{
glyphname = quotedblleft;
kernLeft = quoteleft;
kernRight = quotedbl;
lastChange = "2025-04-11 17:34:23 +0000";
layers = (
{
layerId = m01;
shapes = (
{
closed = 1;
nodes = (
(297,469,l),
(306.606,536.243,o),
(324.964,620.959,o),
(347,714,c),
(282,714,l),
(244.06,628.636,o),
(212.303,547.289,o),
(195,480,c),
(202,469,l)
);
},
{
closed = 1;
nodes = (
(112,469,l),
(121.606,536.243,o),
(139.964,620.959,o),
(162,714,c),
(98,714,l),
(60.611,629.876,o),
(29.11,546.54,o),
(12,480,c),
(18,469,l)
);
}
);
width = 359;
}
);
note = quotedblleft;
unicode = 8220;
},
{
glyphname = quotedblright;
kernLeft = quotedbl;
kernRight = quotedbl;
lastChange = "2025-04-11 17:34:23 +0000";
layers = (
{
layerId = m01;
shapes = (
{
closed = 1;
nodes = (
(261,469,l),
(292.817,540.588,o),
(328.103,629.513,o),
(347,703,c),
(340,714,l),
(246,714,l),
(237.933,657.533,o),
(216.101,549.183,o),
(195,469,c)
);
},
{
closed = 1;
nodes = (
(76,469,l),
(107.817,540.588,o),
(143.103,629.513,o),
(162,703,c),
(155,714,l),
(61,714,l),
(50.388,645.025,o),
(31.021,545.085,o),
(12,469,c)
);
}
);
width = 359;
}
);
note = quotedblright;
unicode = 8221;
},
{
glyphname = quoteleft;
kernLeft = quoteleft;
kernRight = quotedbl;
lastChange = "2025-04-11 17:34:23 +0000";
layers = (
{
layerId = m01;
shapes = (
{
closed = 1;
nodes = (
(113,469,l),
(123.239,540.676,o),
(140.264,618.004,o),
(163,714,c),
(98,714,l),
(59.977,630.824,o),
(29.015,546.171,o),
(12,480,c),
(18,469,l)
);
}
);
width = 175;
}
);
note = quoteleft;
unicode = 8216;
},
{
glyphname = quoteright;
kernLeft = quotedbl;
kernRight = quotedbl;
lastChange = "2025-04-11 17:34:23 +0000";
layers = (
{
layerId = m01;
shapes = (
{
closed = 1;
nodes = (
(77,469,l),
(108.817,540.588,o),
(144.103,629.513,o),
(163,703,c),
(156,714,l),
(62,714,l),
(49.826,634.869,o),
(33.501,555.003,o),
(12,469,c)
);
}
);
width = 175;
}
);
note = quoteright;
unicode = 8217;
},
{
glyphname = quotedbl;
kernLeft = quotedbl;
kernRight = quotedbl;
lastChange = "2025-04-11 17:34:23 +0000";
layers = (
{
layerId = m01;
shapes = (
{
closed = 1;
nodes = (
(323,456,l),
(343,714,l),
(248,714,l),
(268,456,l)
);
},
{
closed = 1;
nodes = (
(140,456,l),
(160,714,l),
(65,714,l),
(85,456,l)
);
}
);
width = 408;
}
);
note = quotedbl;
unicode = 34;
},
{
glyphname = quotesingle;
kernLeft = quotedbl;
kernRight = quotedbl;
lastChange = "2025-04-11 17:34:23 +0000";
layers = (
{
layerId = m01;
shapes = (
{
closed = 1;
nodes = (
(140,456,l),
(160,714,l),
(65,714,l),
(85,456,l)
);
}
);
width = 225;
}
);
note = quotesingle;
unicode = 39;
},
{
glyphname = percent;
lastChange = "2025-04-11 17:34:23 +0000";
layers = (
{
layerId = m01;
shapes = (
{
closed = 1;
nodes = (
(256,0,l),
(652,714,l),
(575,714,l),
(179,0,l)
);
},
{
closed = 1;
nodes = (
(297.667,276,o),
(345,359.667,o),
(345,501,cs),
(345,642.333,o),
(293.667,724,o),
(195,724,cs),
(93.667,724,o),
(49,642.333,o),
(49,501,cs),
(49,359.667,o),
(100.333,276,o),
(195,276,cs)
);
},
{
closed = 1;
nodes = (
(169.667,339,o),
(151.167,352.667,o),
(139.5,380,cs),
(127.833,407.333,o),
(122,447.667,o),
(122,501,cs),
(122,554.333,o),
(127.833,594.5,o),
(139.5,621.5,cs),
(151.167,648.5,o),
(169.667,662,o),
(195,662,cs),
(247,662,o),
(272,607.667,o),
(272,501,cs),
(272,447,o),
(265.667,406.5,o),
(253,379.5,cs),
(240.333,352.5,o),
(221,339,o),
(195,339,cs)
);
},
{
closed = 1;
nodes = (
(734.667,-10,o),
(782,73.667,o),
(782,215,cs),
(782,356.333,o),
(729.333,438,o),
(632,438,cs),
(530.667,438,o),
(486,356.333,o),
(486,215,cs),
(486,73.667,o),
(537.333,-10,o),
(632,-10,cs)
);
},
{
closed = 1;
nodes = (
(606.667,53,o),
(588.167,66.5,o),
(576.5,93.5,cs),
(564.833,120.5,o),
(559,161,o),
(559,215,cs),
(559,268.333,o),
(564.833,308.333,o),
(576.5,335,cs),
(588.167,361.667,o),
(606.667,375,o),
(632,375,cs),
(684,375,o),
(709,321.667,o),
(709,215,cs),
(709,160.333,o),
(702.667,119.667,o),
(690,93,cs),
(677.333,66.333,o),
(658,53,o),
(632,53,cs)
);
}
);
width = 831;
}
);
note = percent;
unicode = 37;
},
{
glyphname = dottedCircle;
lastChange = "2025-04-11 17:34:23 +0000";
layers = (
{
anchors = (
{
name = bottom;
pos = (297,0);
},
{
name = top;
pos = (296,583);
}
);
layerId = m01;
shapes = (
{
closed = 1;
nodes = (
(469.667,423,o),
(481,434.333,o),
(481,449,cs),
(481,463.667,o),
(469.667,475,o),
(455,475,cs),
(440.333,475,o),
(429,463.667,o),
(429,449,cs),
(429,434.333,o),
(440.333,423,o),
(455,423,cs)
);
},
{
closed = 1;
nodes = (
(153.667,107,o),
(165,118.333,o),
(165,133,cs),
(165,147.667,o),
(153.667,159,o),
(139,159,cs),
(124.333,159,o),
(113,147.667,o),
(113,133,cs),
(113,118.333,o),
(124.333,107,o),
(139,107,cs)
);
},
{
closed = 1;
nodes = (
(105.333,181,o),
(118,192.333,o),
(118,207,cs),
(118,221.667,o),
(105.333,233,o),
(92,233,cs),
(78.667,233,o),
(66,221.667,o),
(66,207,cs),
(66,192.333,o),
(78.667,181,o),
(92,181,cs)
);
},
{
closed = 1;
nodes = (
(227.667,60,o),
(239,72.667,o),
(239,86,cs),
(239,99.333,o),
(227.667,112,o),
(213,112,cs),
(198.333,112,o),
(187,99.333,o),
(187,86,cs),
(187,72.667,o),
(198.333,60,o),
(213,60,cs)
);
},
{
closed = 1;
nodes = (
(87.333,265,o),
(100,276.333,o),
(100,291,cs),
(100,305.667,o),
(87.333,317,o),
(74,317,cs),
(60.667,317,o),
(48,305.667,o),
(48,291,cs),
(48,276.333,o),
(60.667,265,o),
(74,265,cs)
);
},
{
closed = 1;
nodes = (
(311.667,42,o),
(323,54.667,o),
(323,68,cs),
(323,81.333,o),
(311.667,94,o),
(297,94,cs),
(282.333,94,o),
(271,81.333,o),
(271,68,cs),
(271,54.667,o),
(282.333,42,o),
(297,42,cs)
);
},
{
closed = 1;
nodes = (
(105.333,349,o),
(118,360.333,o),
(118,375,cs),
(118,389.667,o),
(105.333,401,o),
(92,401,cs),
(78.667,401,o),
(66,389.667,o),
(66,375,cs),
(66,360.333,o),
(78.667,349,o),
(92,349,cs)
);
},
{
closed = 1;
nodes = (
(395.667,60,o),
(407,72.667,o),
(407,86,cs),
(407,99.333,o),
(395.667,112,o),
(381,112,cs),
(366.333,112,o),
(355,99.333,o),
(355,86,cs),
(355,72.667,o),
(366.333,60,o),
(381,60,cs)
);
},
{
closed = 1;
nodes = (
(153.667,423,o),
(165,434.333,o),
(165,449,cs),
(165,463.667,o),
(153.667,475,o),
(139,475,cs),
(124.333,475,o),
(113,463.667,o),
(113,449,cs),
(113,434.333,o),
(124.333,423,o),
(139,423,cs)
);
},
{
closed = 1;
nodes = (
(469.667,107,o),
(481,118.333,o),
(481,133,cs),
(481,147.667,o),
(469.667,159,o),
(455,159,cs),
(440.333,159,o),
(429,147.667,o),
(429,133,cs),
(429,118.333,o),
(440.333,107,o),
(455,107,cs)
);
},
{
closed = 1;
nodes = (
(227.667,470,o),
(239,482.667,o),
(239,496,cs),
(239,509.333,o),
(227.667,522,o),
(213,522,cs),
(198.333,522,o),
(187,509.333,o),
(187,496,cs),
(187,482.667,o),
(198.333,470,o),
(213,470,cs)
);
},
{
closed = 1;
nodes = (
(515.333,181,o),
(528,192.333,o),
(528,207,cs),
(528,221.667,o),
(515.333,233,o),
(502,233,cs),
(488.667,233,o),
(476,221.667,o),
(476,207,cs),
(476,192.333,o),
(488.667,181,o),
(502,181,cs)
);
},
{
closed = 1;
nodes = (
(311.667,488,o),
(323,500.667,o),
(323,514,cs),
(323,527.333,o),
(311.667,540,o),
(297,540,cs),
(282.333,540,o),
(271,527.333,o),
(271,514,cs),
(271,500.667,o),
(282.333,488,o),
(297,488,cs)
);
},
{
closed = 1;
nodes = (
(533.333,265,o),
(546,276.333,o),
(546,291,cs),
(546,305.667,o),
(533.333,317,o),
(520,317,cs),
(506.667,317,o),
(494,305.667,o),
(494,291,cs),
(494,276.333,o),
(506.667,265,o),
(520,265,cs)
);
},
{
closed = 1;
nodes = (
(395.667,470,o),
(407,482.667,o),
(407,496,cs),
(407,509.333,o),
(395.667,522,o),
(381,522,cs),
(366.333,522,o),
(355,509.333,o),
(355,496,cs),
(355,482.667,o),
(366.333,470,o),
(381,470,cs)
);
},
{
closed = 1;
nodes = (
(515.333,349,o),
(528,360.333,o),
(528,375,cs),
(528,389.667,o),
(515.333,401,o),
(502,401,cs),
(488.667,401,o),
(476,389.667,o),
(476,375,cs),
(476,360.333,o),
(488.667,349,o),
(502,349,cs)
);
}
);
width = 594;
},
{
associatedMasterId = m01;
layerId = "201D1995-4E5E-441E-AFED-969F1360B126";
name = Bold;
shapes = (
{
closed = 1;
nodes = (
(469.667,423,o),
(481,434.333,o),
(481,449,cs),
(481,463.667,o),
(469.667,475,o),
(455,475,cs),
(440.333,475,o),
(429,463.667,o),
(429,449,cs),
(429,434.333,o),
(440.333,423,o),
(455,423,cs)
);
},
{
closed = 1;
nodes = (
(153.667,107,o),
(165,118.333,o),
(165,133,cs),
(165,147.667,o),
(153.667,159,o),
(139,159,cs),
(124.333,159,o),
(113,147.667,o),
(113,133,cs),
(113,118.333,o),
(124.333,107,o),
(139,107,cs)
);
},
{
closed = 1;
nodes = (
(105.333,181,o),
(118,192.333,o),
(118,207,cs),
(118,221.667,o),
(105.333,233,o),
(92,233,cs),
(78.667,233,o),
(66,221.667,o),
(66,207,cs),
(66,192.333,o),
(78.667,181,o),
(92,181,cs)
);
},
{
closed = 1;
nodes = (
(227.667,60,o),
(239,72.667,o),
(239,86,cs),
(239,99.333,o),
(227.667,112,o),
(213,112,cs),
(198.333,112,o),
(187,99.333,o),
(187,86,cs),
(187,72.667,o),
(198.333,60,o),
(213,60,cs)
);
},
{
closed = 1;
nodes = (
(87.333,265,o),
(100,276.333,o),
(100,291,cs),
(100,305.667,o),
(87.333,317,o),
(74,317,cs),
(60.667,317,o),
(48,305.667,o),
(48,291,cs),
(48,276.333,o),
(60.667,265,o),
(74,265,cs)
);
},
{
closed = 1;
nodes = (
(311.667,42,o),
(323,54.667,o),
(323,68,cs),
(323,81.333,o),
(311.667,94,o),
(297,94,cs),
(282.333,94,o),
(271,81.333,o),
(271,68,cs),
(271,54.667,o),
(282.333,42,o),
(297,42,cs)
);
},
{
closed = 1;
nodes = (
(105.333,349,o),
(118,360.333,o),
(118,375,cs),
(118,389.667,o),
(105.333,401,o),
(92,401,cs),
(78.667,401,o),
(66,389.667,o),
(66,375,cs),
(66,360.333,o),
(78.667,349,o),
(92,349,cs)
);
},
{
closed = 1;
nodes = (
(395.667,60,o),
(407,72.667,o),
(407,86,cs),
(407,99.333,o),
(395.667,112,o),
(381,112,cs),
(366.333,112,o),
(355,99.333,o),
(355,86,cs),
(355,72.667,o),
(366.333,60,o),
(381,60,cs)
);
},
{
closed = 1;
nodes = (
(153.667,423,o),
(165,434.333,o),
(165,449,cs),
(165,463.667,o),
(153.667,475,o),
(139,475,cs),
(124.333,475,o),
(113,463.667,o),
(113,449,cs),
(113,434.333,o),
(124.333,423,o),
(139,423,cs)
);
},
{
closed = 1;
nodes = (
(469.667,107,o),
(481,118.333,o),
(481,133,cs),
(481,147.667,o),
(469.667,159,o),
(455,159,cs),
(440.333,159,o),
(429,147.667,o),
(429,133,cs),
(429,118.333,o),
(440.333,107,o),
(455,107,cs)
);
},
{
closed = 1;
nodes = (
(227.667,470,o),
(239,482.667,o),
(239,496,cs),
(239,509.333,o),
(227.667,522,o),
(213,522,cs),
(198.333,522,o),
(187,509.333,o),
(187,496,cs),
(187,482.667,o),
(198.333,470,o),
(213,470,cs)
);
},
{
closed = 1;
nodes = (
(515.333,181,o),
(528,192.333,o),
(528,207,cs),
(528,221.667,o),
(515.333,233,o),
(502,233,cs),
(488.667,233,o),
(476,221.667,o),
(476,207,cs),
(476,192.333,o),
(488.667,181,o),
(502,181,cs)
);
},
{
closed = 1;
nodes = (
(311.667,488,o),
(323,500.667,o),
(323,514,cs),
(323,527.333,o),
(311.667,540,o),
(297,540,cs),
(282.333,540,o),
(271,527.333,o),
(271,514,cs),
(271,500.667,o),
(282.333,488,o),
(297,488,cs)
);
},
{
closed = 1;
nodes = (
(533.333,265,o),
(546,276.333,o),
(546,291,cs),
(546,305.667,o),
(533.333,317,o),
(520,317,cs),
(506.667,317,o),
(494,305.667,o),
(494,291,cs),
(494,276.333,o),
(506.667,265,o),
(520,265,cs)
);
},
{
closed = 1;
nodes = (
(395.667,470,o),
(407,482.667,o),
(407,496,cs),
(407,509.333,o),
(395.667,522,o),
(381,522,cs),
(366.333,522,o),
(355,509.333,o),
(355,496,cs),
(355,482.667,o),
(366.333,470,o),
(381,470,cs)
);
},
{
closed = 1;
nodes = (
(515.333,349,o),
(528,360.333,o),
(528,375,cs),
(528,389.667,o),
(515.333,401,o),
(502,401,cs),
(488.667,401,o),
(476,389.667,o),
(476,375,cs),
(476,360.333,o),
(488.667,349,o),
(502,349,cs)
);
}
);
width = 594;
}
);
note = uni25CC;
unicode = 9676;
},
{
glyphname = uni030D;
lastChange = "2025-04-11 17:34:23 +0000";
layers = (
{
anchors = (
{
name = _top;
pos = (1,536);
}
);
layerId = m01;
shapes = (
{
closed = 1;
nodes = (
(40,596,l),
(40,760,l),
(-40,760,l),
(-40,596,l)
);
}
);
width = 0;
}
);
note = uni030D;
unicode = 781;
},
{
glyphname = uni0310;
lastChange = "2025-04-11 17:34:23 +0000";
layers = (
{
anchors = (
{
name = _top;
pos = (0,536);
}
);
layerId = m01;
shapes = (
{
closed = 1;
nodes = (
(27.667,732,o),
(52,750.667,o),
(52,788,cs),
(52,826.667,o),
(27.667,844,o),
(1,844,cs),
(-28.333,844,o),
(-51,826.667,o),
(-51,788,cs),
(-51,750.667,o),
(-28.333,732,o),
(1,732,cs)
);
},
{
pos = (-190,0);
ref = macronmod;
}
);
width = 0;
}
);
note = uni0310;
unicode = 784;
},
{
glyphname = uni031D;
lastChange = "2025-04-11 17:34:23 +0000";
layers = (
{
layerId = m01;
shapes = (
{
closed = 1;
nodes = (
(105,-208,l),
(105,-148,l),
(33,-148,l),
(33,-48,l),
(-33,-48,l),
(-33,-148,l),
(-105,-148,l),
(-105,-208,l)
);
}
);
width = 0;
}
);
note = uni031D;
unicode = 797;
},
{
glyphname = grave;
lastChange = "2025-04-11 17:34:23 +0000";
layers = (
{
layerId = m01;
shapes = (
{
closed = 1;
nodes = (
(241,606,l),
(241,618,l),
(208.122,659.645,o),
(169.164,717.672,o),
(145,766,c),
(40,766,l),
(40,756,l),
(63.886,718.845,o),
(126.766,651.487,o),
(182,606,c)
);
}
);
width = 281;
}
);
note = grave;
unicode = 96;
},
{
glyphname = acute;
lastChange = "2025-04-11 17:34:23 +0000";
layers = (
{
layerId = m01;
shapes = (
{
closed = 1;
nodes = (
(98,606,l),
(146.476,643.704,o),
(219.328,722.288,o),
(241,756,c),
(241,766,l),
(135,766,l),
(113.756,723.512,o),
(69.75,655.684,o),
(40,618,c),
(40,606,l)
);
}
);
width = 281;
}
);
note = acute;
unicode = 180;
},
{
glyphname = circumflex;
lastChange = "2025-04-11 17:34:23 +0000";
layers = (
{
layerId = m01;
shapes = (
{
closed = 1;
nodes = (
(100,606,l),
(134.667,628.667,o),
(171,660,o),
(207,696,c),
(243,660,o),
(281.333,627.333,o),
(316,606,c),
(378,606,l),
(378,617,l),
(334.164,660.836,o),
(275.654,724.468,o),
(253,766,c),
(163,766,l),
(134.802,718.281,o),
(77.846,656.838,o),
(40,617,c),
(40,606,l)
);
}
);
width = 418;
}
);
note = circumflex;
unicode = 710;
},
{
glyphname = macronmod;
lastChange = "2025-04-11 17:34:23 +0000";
layers = (
{
layerId = m01;
shapes = (
{
closed = 1;
nodes = (
(337,606,l),
(337,677,l),
(40,677,l),
(40,606,l)
);
}
);
width = 377;
}
);
note = macronmod;
unicode = 713;
},
{
glyphname = tilde;
lastChange = "2025-04-11 17:34:23 +0000";
layers = (
{
layerId = m01;
shapes = (
{
closed = 1;
nodes = (
(91,606,l),
(100.333,644.667,o),
(114,664,o),
(146,664,cs),
(192.501,664,o),
(239.908,607,o),
(298,607,cs),
(360.667,607,o),
(399,657.667,o),
(407,735,c),
(357,735,l),
(347.667,696.333,o),
(332.667,677,o),
(302,677,cs),
(254.731,677,o),
(213.286,734,o),
(150,734,cs),
(85.471,734,o),
(47.78,683.801,o),
(40,606,c)
);
}
